<svg width="250" height="219" viewBox="0 0 250 219" fill="none" xmlns="http://www.w3.org/2000/svg">
<g clip-path="url(#clip0_150_8499)">
<path d="M41.4657 75.8965C40.8808 75.9554 40.2922 75.9692 39.7052 75.9376C39.6051 75.9266 39.5048 75.9554 39.4257 76.0178C39.3467 76.0801 39.2953 76.171 39.2826 76.2708L38.1596 84.6942C38.0732 85.3056 37.8229 85.8823 37.4352 86.3629C37.1155 86.7454 36.8779 87.1895 36.737 87.6677C36.5962 88.1458 36.5552 88.6478 36.6165 89.1425V103.451C36.6165 103.451 36.544 105.359 38.0099 105.359C39.7643 105.579 41.5394 105.579 43.2938 105.359C43.2938 105.359 44.4675 105.137 44.4675 103.376V89.2874C44.557 88.7959 44.5386 88.2907 44.4135 87.807C44.2884 87.3233 44.0596 86.8726 43.743 86.4861C43.3683 86.0037 43.126 85.4318 43.0403 84.827L41.8738 76.2274C41.8606 76.1307 41.811 76.0427 41.7352 75.9812C41.6594 75.9198 41.5631 75.8895 41.4657 75.8965Z" fill="white"/>
<path d="M40.6469 105.766C39.7602 105.766 38.8744 105.711 37.9945 105.601C37.798 105.605 37.6025 105.569 37.4205 105.495C37.2385 105.42 37.0739 105.309 36.937 105.168C36.3405 104.548 36.3736 103.487 36.3754 103.442L36.3752 89.1575C36.3129 88.6323 36.3584 88.0999 36.5088 87.5928C36.6592 87.0858 36.9114 86.6147 37.25 86.2084C37.609 85.7624 37.8407 85.2276 37.9207 84.6607L39.0434 76.2392C39.0653 76.0772 39.1494 75.9301 39.2778 75.829C39.4063 75.728 39.5691 75.6809 39.7316 75.6978C40.3019 75.7279 40.8736 75.7141 41.4418 75.6565L41.4485 75.6559C41.607 75.6444 41.764 75.6937 41.8875 75.7938C42.011 75.8939 42.0917 76.0373 42.1133 76.1948L43.2798 84.7949C43.36 85.3574 43.5854 85.8893 43.9339 86.3381C44.2695 86.7482 44.5126 87.2261 44.6464 87.7389C44.7802 88.2517 44.8016 88.7873 44.7092 89.3092V103.376C44.7092 105.315 43.3527 105.594 43.3389 105.597C42.446 105.709 41.5469 105.766 40.6469 105.766ZM39.6726 76.178C39.6367 76.1762 39.6014 76.1879 39.5736 76.2108C39.5459 76.2336 39.5276 76.266 39.5224 76.3015L38.3992 84.7264C38.3068 85.3817 38.0387 85.9997 37.6233 86.5148C37.3247 86.8725 37.1026 87.2876 36.9707 87.7345C36.8388 88.1814 36.7999 88.6505 36.8563 89.113L36.8582 89.1428V103.451C36.8577 103.469 36.8321 104.364 37.286 104.834C37.38 104.93 37.493 105.004 37.6178 105.053C37.7426 105.102 37.8763 105.124 38.0101 105.118L38.0403 105.12C39.7747 105.337 41.5295 105.337 43.2639 105.12C43.2868 105.114 44.2262 104.9 44.2262 103.376L44.2301 89.2444C44.3137 88.7873 44.2968 88.3175 44.1804 87.8676C44.0641 87.4178 43.8511 86.9986 43.5564 86.6394C43.1541 86.1226 42.8938 85.5096 42.8014 84.8612L41.6348 76.26C41.6296 76.2247 41.6115 76.1926 41.584 76.17C41.5565 76.1473 41.5215 76.1358 41.4859 76.1375C40.89 76.1971 40.2905 76.211 39.6925 76.179C39.6859 76.1783 39.6792 76.178 39.6726 76.178H39.6726Z" fill="#3F3D56"/>
<path d="M39.6934 89.3984H41.4732C42.181 89.3984 42.8597 89.6796 43.3602 90.18C43.8606 90.6805 44.1418 91.3592 44.1418 92.067V98.7636C44.1418 99.4714 43.8606 100.15 43.3602 100.651C42.8597 101.151 42.181 101.432 41.4732 101.432H39.6934C38.9857 101.432 38.3069 101.151 37.8065 100.651C37.306 100.15 37.0249 99.4714 37.0249 98.7636V92.067C37.0249 91.7165 37.0939 91.3695 37.228 91.0458C37.3621 90.722 37.5587 90.4278 37.8065 90.18C38.0543 89.9322 38.3485 89.7357 38.6722 89.6016C38.996 89.4675 39.343 89.3984 39.6934 89.3984Z" fill="#FA4A0C"/>
<path d="M6.97221 212.394H12.7748L15.5354 190.013L6.97119 190.013L6.97221 212.394Z" fill="#9F616A"/>
<path d="M5.49219 210.5L16.9197 210.5H16.9201C18.8515 210.5 20.7038 211.267 22.0695 212.633C23.4352 213.998 24.2025 215.851 24.2026 217.782V218.019L5.49253 218.019L5.49219 210.5Z" fill="#2F2E41"/>
<path d="M3.32394 132.453C3.32394 132.453 0.809118 135.296 4.97327 146.377L4.23979 207.138L17.7345 206.874L20.7008 177.236L26.1015 133.985L3.32394 132.453Z" fill="#2F2E41"/>
<path d="M30.7299 140.853L30.5822 140.831C13.3187 138.198 0.291407 135.674 0.161831 135.649L0 135.617L4.52548 124.61C4.48973 123.46 3.51013 91.1617 5.38541 81.8821C7.20081 72.8988 15.758 71.4267 16.7331 71.2882L17.7122 68.0439L30.0823 74.4808L32.2398 81.906L32.678 102.257L30.7299 140.853Z" fill="#3F3D56"/>
<path d="M38.1804 98.9678C37.6233 98.9676 37.0723 99.0828 36.5619 99.306C36.0515 99.5292 35.5929 99.8557 35.2148 100.265H14.4227L6.80664 101.886L8.05708 111.53L35.1495 105.704C35.598 106.21 36.1663 106.597 36.8025 106.827C37.4387 107.057 38.1224 107.125 38.7913 107.023C39.4602 106.921 40.093 106.654 40.6319 106.244C41.1707 105.835 41.5985 105.298 41.8761 104.681C42.1538 104.064 42.2724 103.387 42.2212 102.712C42.1701 102.037 41.9507 101.386 41.5832 100.818C41.2157 100.25 40.7117 99.7832 40.1173 99.4599C39.5229 99.1367 38.857 98.9675 38.1804 98.9678H38.1804Z" fill="#9F616A"/>
<path d="M38.3606 64.3985C41.0152 59.5424 39.2305 53.4538 34.3744 50.7993C29.5184 48.1447 23.4298 49.9294 20.7753 54.7854C18.1207 59.6415 19.9054 65.7301 24.7614 68.3846C29.6175 71.0392 35.7061 69.2545 38.3606 64.3985Z" fill="#9F616A"/>
<path d="M20.1436 51.581L19.6578 50.6032L22.1022 49.3887C22.1022 49.3887 24.7988 45.0011 29.6783 46.2341C34.5579 47.4671 36.7532 48.2051 36.7532 48.2051L39.1915 49.4319L37.9677 50.6495L40.1631 51.3875L38.6964 52.1161L40.4029 53.097L39.4843 58.1251C39.4843 58.1251 37.9585 54.3115 35.0252 55.7688C32.092 57.2262 26.7266 55.0155 26.7266 55.0155L22.0652 64.0366C22.0652 64.0366 21.1036 60.8743 19.389 61.7175C19.389 61.7175 15.0088 54.7417 20.1436 51.581Z" fill="#2F2E41"/>
<path d="M8.19022 113.338L5.81246 106.265L5.2373 82.688L6.25042 79.3428C6.61507 78.1388 7.21905 77.0209 8.02614 76.0559C8.83322 75.091 9.82681 74.2989 10.9474 73.7271C12.0679 73.1554 13.2924 72.8157 14.5473 72.7285C15.8023 72.6413 17.0619 72.8084 18.2508 73.2197C19.4396 73.631 20.5332 74.2781 21.466 75.1222C22.3987 75.9663 23.1515 76.99 23.6791 78.132C24.2068 79.274 24.4984 80.5107 24.5366 81.7681C24.5749 83.0255 24.3588 84.2777 23.9015 85.4496L18.4713 99.3646L18.7473 99.9004L30.5119 99.8051L34.6908 107.327L8.19022 113.338Z" fill="#3F3D56"/>
<path d="M125.896 110.431C126.335 110.136 126.704 109.747 126.977 109.294C127.25 108.84 127.42 108.332 127.475 107.806C127.53 107.279 127.469 106.747 127.296 106.247C127.123 105.746 126.843 105.29 126.475 104.909L132.274 93.4229L125.632 94.1933L121.143 104.983C120.545 105.644 120.211 106.501 120.203 107.392C120.195 108.284 120.514 109.147 121.1 109.818C121.686 110.49 122.498 110.923 123.382 111.036C124.266 111.149 125.16 110.934 125.896 110.431Z" fill="#FFB7B7"/>
<path d="M172.403 191.797L167.177 191.797L164.691 171.639L172.404 171.639L172.403 191.797Z" fill="#FFB7B7"/>
<path d="M173.736 196.863L156.885 196.862V196.649C156.885 194.91 157.576 193.241 158.806 192.011C160.036 190.781 161.704 190.09 163.444 190.09H163.444L173.736 190.091L173.736 196.863Z" fill="#2F2E41"/>
<path d="M143.842 191.797L138.616 191.797L136.13 171.639L143.843 171.639L143.842 191.797Z" fill="#FFB7B7"/>
<path d="M143.896 196.863L127.045 196.862V196.649C127.045 194.91 127.736 193.241 128.966 192.011C130.196 190.781 131.864 190.09 133.604 190.09H133.604L143.896 190.091L143.896 196.863Z" fill="#2F2E41"/>
<path d="M143.414 106.659L138.299 118.444L134.079 186.18L144.736 185.754L147.647 153.464L156.626 124.704L161.787 156.766L163.919 184.901L172.737 185.283L176.251 106.659H143.414Z" fill="#2F2E41"/>
<path d="M168.984 48.5078L154.158 48.8787L145.454 53.3472L144.976 86.3148L139.547 109.076C139.547 109.076 173.467 111.411 178.156 108L172.614 81.9972L180.047 53.8951L168.984 48.5078Z" fill="#FA4A0C"/>
<path d="M147.743 53.893L146.363 52.9609C146.363 52.9609 140.645 54.6747 138.955 62.2992C138.955 62.2992 137.662 66.1244 137.094 68.7544C136.444 71.7709 122.071 99.4792 122.071 99.4792L130.676 101.948L146.452 76.4354L147.743 53.893Z" fill="#FA4A0C"/>
<path d="M179.815 114.66C179.474 114.254 179.227 113.779 179.09 113.268C178.953 112.757 178.93 112.221 179.022 111.7C179.114 111.179 179.319 110.684 179.623 110.251C179.927 109.818 180.323 109.456 180.782 109.192L178.375 96.5518L184.547 99.1239L185.886 110.733C186.278 111.533 186.364 112.45 186.126 113.308C185.888 114.167 185.343 114.909 184.594 115.393C183.846 115.877 182.946 116.07 182.065 115.934C181.184 115.799 180.384 115.346 179.815 114.66Z" fill="#FFB7B7"/>
<path d="M177.816 54.2888L179.4 53.7734C179.4 53.7734 184.423 56.9975 183.945 64.7924C183.945 64.7924 184.134 68.826 183.954 71.5105C183.748 74.5895 186.512 105.187 186.512 105.187H177.56L173.723 77.4784L177.816 54.2888Z" fill="#FA4A0C"/>
<path d="M172.624 34.6761C172.624 36.7089 172.021 38.6959 170.892 40.3861C169.762 42.0762 168.157 43.3936 166.279 44.1715C164.401 44.9493 162.335 45.1529 160.341 44.7563C158.347 44.3597 156.516 43.3809 155.079 41.9435C153.641 40.5062 152.662 38.6749 152.266 36.6812C151.869 34.6875 152.073 32.621 152.851 30.743C153.629 28.865 154.946 27.2599 156.636 26.1306C158.326 25.0012 160.313 24.3985 162.346 24.3985C165.065 24.3917 167.675 25.4653 169.603 27.3831C171.53 29.301 172.617 31.9059 172.624 34.6249C172.624 34.642 172.624 34.6591 172.624 34.6761Z" fill="#FFB7B7"/>
<path d="M152.103 20.8711C153.307 18.2822 155.637 18.794 157.674 19.6716C160.255 19.0992 162.709 17.3856 165.489 18.399C168.228 22.3823 177.423 21.2103 175.466 27.6951C175.464 29.2489 178.39 28.3445 177.879 30.8894C179.43 35.787 172.284 45.0623 168.181 43.1091C169.196 41.2497 171.514 37.0263 167.998 36.6074C160.436 43.6434 167.218 23.2091 157.717 29.1518C154.571 32.0308 150.264 23.7509 152.103 20.8711Z" fill="#2F2E41"/>
<path d="M181.614 115.685C182.103 115.783 182.609 115.773 183.094 115.655C183.579 115.537 184.032 115.314 184.422 115.002C184.812 114.69 185.128 114.296 185.35 113.848C185.571 113.401 185.691 112.91 185.702 112.411L211.508 88.1211L205.702 83.4893L182.117 108.883C181.277 108.92 180.48 109.264 179.877 109.85C179.274 110.435 178.906 111.222 178.844 112.06C178.782 112.899 179.03 113.731 179.54 114.399C180.051 115.067 180.789 115.524 181.614 115.685Z" fill="#9F616A"/>
<path d="M207.851 92.0474L202.831 86.1636C202.688 85.9962 202.583 85.8 202.523 85.5883C202.463 85.3766 202.449 85.1544 202.482 84.9369C202.516 84.7194 202.595 84.5116 202.716 84.3278C202.837 84.1439 202.997 83.9883 203.183 83.8715L209.719 79.7799C210.58 79.0537 211.693 78.6985 212.816 78.7921C213.938 78.8857 214.977 79.4205 215.705 80.2793C216.434 81.138 216.792 82.2506 216.701 83.373C216.611 84.4954 216.079 85.5361 215.222 86.2667L210.17 92.0601C210.026 92.226 209.847 92.3587 209.646 92.4492C209.446 92.5397 209.228 92.586 209.008 92.5848C208.788 92.5836 208.571 92.5349 208.371 92.4422C208.171 92.3495 207.994 92.2148 207.851 92.0474V92.0474Z" fill="#CBCBCB"/>
<path d="M194.351 211.903L188.041 211.903L185.039 187.566L194.352 187.566L194.351 211.903Z" fill="#9F616A"/>
<path d="M195.96 218.02L175.615 218.019V217.761C175.615 215.661 176.449 213.647 177.934 212.162C179.419 210.677 181.433 209.843 183.534 209.843H183.534L195.96 209.843L195.96 218.02Z" fill="#2F2E41"/>
<path d="M244.787 211.903L238.477 211.903L235.476 187.566L244.788 187.566L244.787 211.903Z" fill="#9F616A"/>
<path d="M246.396 218.02L226.051 218.019V217.761C226.051 215.661 226.886 213.647 228.371 212.162C229.856 210.677 231.87 209.843 233.97 209.843H233.971L246.396 209.843L246.396 218.02Z" fill="#2F2E41"/>
<path d="M227.815 104.947L234.175 81.4493L225.924 76.8115H214.407L209.928 81.6039C209.928 81.6039 202.444 86.8109 204.255 92.58L207.178 105.72L202.708 126.591L180.19 157.818L174.86 188.492L195.843 193.993L218.533 149.316L229.534 198.785L250 197.756L242.948 137.774C242.948 137.774 240.937 119.501 230.399 108.092L227.815 104.947Z" fill="#2F2E41"/>
<path d="M240.95 125.738C241.305 125.387 241.578 124.962 241.751 124.493C241.923 124.025 241.991 123.524 241.95 123.027C241.908 122.529 241.757 122.047 241.509 121.614C241.261 121.18 240.921 120.807 240.512 120.519L235.578 87.2275L228.495 89.464L235.585 121.528C235.147 122.246 234.988 123.099 235.138 123.926C235.288 124.753 235.736 125.497 236.397 126.016C237.058 126.535 237.887 126.793 238.726 126.742C239.565 126.691 240.357 126.334 240.95 125.738Z" fill="#9F616A"/>
<path d="M236.797 92.4527L229.113 93.3387C228.894 93.3639 228.673 93.3417 228.464 93.2736C228.254 93.2055 228.062 93.0931 227.9 92.944C227.739 92.795 227.611 92.6128 227.526 92.4098C227.44 92.2069 227.4 91.988 227.407 91.768L227.656 84.0608C227.533 82.9416 227.86 81.8194 228.563 80.9403C229.267 80.0612 230.29 79.497 231.409 79.3713C232.528 79.2456 233.651 79.5687 234.532 80.2698C235.413 80.9709 235.98 81.9927 236.109 83.1112L238.101 90.535C238.158 90.7476 238.168 90.97 238.131 91.1869C238.095 91.4039 238.012 91.6105 237.888 91.7924C237.764 91.9744 237.603 92.1276 237.414 92.2416C237.226 92.3555 237.015 92.4276 236.797 92.4528V92.4527Z" fill="#CBCBCB"/>
<path d="M207.287 70.1296V60.2289C207.287 56.7103 208.684 53.3358 211.172 50.8477C213.66 48.3597 217.035 46.9619 220.554 46.9619C224.072 46.9619 227.447 48.3597 229.935 50.8477C232.423 53.3358 233.821 56.7103 233.821 60.2289V70.1296C233.82 70.6021 233.632 71.0551 233.298 71.3892C232.964 71.7233 232.511 71.9112 232.038 71.9118H209.069C208.596 71.9112 208.143 71.7233 207.809 71.3892C207.475 71.0551 207.287 70.6021 207.287 70.1296Z" fill="#2F2E41"/>
<path d="M222.493 70.4892C227.206 67.9124 228.939 62.0024 226.362 57.2887C223.785 52.575 217.875 50.8426 213.161 53.4194C208.448 55.9961 206.715 61.9062 209.292 66.6199C211.869 71.3336 217.779 73.0659 222.493 70.4892Z" fill="#9F616A"/>
<path d="M204.148 61.0202C204.151 58.2377 205.258 55.5702 207.225 53.6027C209.193 51.6352 211.86 50.5285 214.643 50.5254H216.623C219.405 50.5285 222.073 51.6352 224.04 53.6027C226.008 55.5702 227.115 58.2378 227.118 61.0202V61.2182H222.933L221.506 57.2215L221.22 61.2182H219.058L218.337 59.2017L218.193 61.2182H204.148V61.0202Z" fill="#2F2E41"/>
<path d="M216.87 73.0251C216.673 72.7591 216.556 72.443 216.531 72.1132C216.507 71.7834 216.576 71.4533 216.73 71.161C218.829 67.1698 221.767 59.7949 217.867 55.2467L217.587 54.9199H228.908V71.9175L218.623 73.7321C218.519 73.7505 218.414 73.7598 218.308 73.7599C218.027 73.7599 217.75 73.6933 217.5 73.5656C217.25 73.4378 217.034 73.2526 216.87 73.0251Z" fill="#2F2E41"/>
<path d="M112.811 82.0761C112.667 82.2237 112.535 82.3824 112.417 82.5507L93.9701 82.0994L91.8182 78.167L85.459 80.6391L88.5921 87.9708C88.8452 88.5631 89.2837 89.0573 89.8416 89.3793C90.3995 89.7012 91.0468 89.8335 91.6862 89.7562L112.528 87.2385C113.019 87.8609 113.689 88.3189 114.447 88.5515C115.205 88.7841 116.016 88.7804 116.772 88.5408C117.528 88.3012 118.194 87.8371 118.679 87.2102C119.165 86.5833 119.449 85.8234 119.492 85.0315C119.536 84.2395 119.337 83.4531 118.923 82.7769C118.508 82.1006 117.898 81.5666 117.172 81.2458C116.447 80.9249 115.641 80.8325 114.862 80.9809C114.083 81.1292 113.367 81.5112 112.811 82.0761H112.811Z" fill="#FFB7B7"/>
<path d="M52.6773 194.104H58.7427L61.6281 170.709L52.6763 170.709L52.6773 194.104Z" fill="#FFB7B7"/>
<path d="M51.1299 192.124L63.0748 192.124H63.0753C65.0942 192.124 67.0303 192.926 68.4578 194.353C69.8854 195.781 70.6874 197.717 70.6876 199.736V199.983L51.1302 199.984L51.1299 192.124Z" fill="#2F2E41"/>
<path d="M107.753 193.969L113.331 191.587L106.794 168.938L98.562 172.456L107.753 193.969Z" fill="#FFB7B7"/>
<path d="M105.552 192.756L116.537 188.063L116.537 188.063C118.394 187.27 120.489 187.247 122.363 187.999C124.236 188.751 125.735 190.216 126.528 192.073L126.625 192.3L108.64 199.984L105.552 192.756Z" fill="#2F2E41"/>
<path d="M82.1588 87.1439L82.5973 94.2514L69.7769 95.6235L56.3618 97.059L60.3102 86.2666L82.1588 87.1439Z" fill="#FFB7B7"/>
<path d="M82.6096 89.6937C82.4643 89.6366 67.9835 84.0038 59.0887 88.6096L58.87 88.723L57.0956 79.9889L56.0845 61.2112L62.6637 58.1023L64.4752 54.0446L76.8139 53.3145L79.3494 56.7917L87.9822 59.6209L82.8227 89.778L82.6096 89.6937Z" fill="#E4E4E4"/>
<path d="M83.063 72.7447L84.5891 60.753L88.0642 59.6953L88.1228 59.7169C88.203 59.7464 90.0916 60.4692 90.6086 63.0839C91.1048 65.5936 94.8421 81.2111 94.8798 81.3686L94.9172 81.5249L86.1363 85.0381L83.063 72.7447Z" fill="#E4E4E4"/>
<path d="M103.235 189.857L114.924 187.46L96.242 135.909L89.8481 118.326C89.8481 118.326 85.7928 104.228 83.9606 98.7725L82.8549 91.4521L56.6801 94.3494C56.6801 94.3494 49.3695 105.086 51.5904 122.585L50.5859 188.359L62.2747 188.958L72.0653 122.622L89.2487 158.987C89.2487 158.987 94.6648 174.505 98.5398 177.869L103.235 189.857Z" fill="#2F2E41"/>
<path d="M67.1771 96.7907C66.9713 96.7859 66.7654 96.7972 66.5614 96.8247L54.3503 82.9909L55.7707 78.7392L49.6343 75.7568L46.3882 83.0393C46.126 83.6276 46.0617 84.2851 46.2049 84.9131C46.3482 85.5411 46.6913 86.1057 47.1827 86.5221L63.1991 100.093C63.0769 100.877 63.1963 101.679 63.5412 102.393C63.8862 103.107 64.4404 103.7 65.1302 104.091C65.8199 104.483 66.6125 104.655 67.4026 104.585C68.1926 104.515 68.9426 104.206 69.5529 103.7C70.1631 103.193 70.6047 102.513 70.8188 101.749C71.0329 100.985 71.0095 100.175 70.7516 99.4246C70.4937 98.6746 70.0135 98.0208 69.375 97.5503C68.7365 97.0799 67.9699 96.8149 67.1771 96.7907Z" fill="#FFB7B7"/>
<path d="M48.5288 77.8068L53.3026 64.2091C53.8391 62.6062 54.5114 61.6324 55.3008 61.3146C55.4564 61.2446 55.6247 61.2077 55.7952 61.2061C55.9657 61.2045 56.1347 61.2383 56.2915 61.3054L58.4321 64.0098L60.4188 72.3558L55.325 84.3376L48.5288 77.8068Z" fill="#E4E4E4"/>
<path d="M80.1269 50.501H59.1699C58.7388 50.5005 58.3255 50.329 58.0207 50.0242C57.7159 49.7194 57.5444 49.3061 57.5439 48.875V39.8418C57.5439 36.6315 58.8192 33.5527 61.0893 31.2826C63.3593 29.0126 66.4381 27.7373 69.6484 27.7373C72.8587 27.7373 75.9375 29.0126 78.2076 31.2826C80.4776 33.5527 81.7529 36.6315 81.7529 39.8418V48.875C81.7524 49.3061 81.5809 49.7194 81.2761 50.0242C80.9713 50.329 80.558 50.5005 80.1269 50.501Z" fill="#2F2E41"/>
<path d="M72.1358 50.2911C77.0371 50.2911 81.0104 46.3179 81.0104 41.4166C81.0104 36.5153 77.0371 32.542 72.1358 32.542C67.2345 32.542 63.2612 36.5153 63.2612 41.4166C63.2612 46.3179 67.2345 50.2911 72.1358 50.2911Z" fill="#FFB7B7"/>
<path d="M84.6162 40.7451H71.8015L71.6701 38.9053L71.013 40.7451H69.0398L68.7794 37.0987L67.4772 40.7451H63.6592V40.5644C63.662 38.0258 64.6717 35.592 66.4668 33.7969C68.2619 32.0019 70.6957 30.9921 73.2343 30.9893H75.041C77.5796 30.9921 80.0134 32.0019 81.8085 33.7969C83.6036 35.592 84.6133 38.0258 84.6162 40.5644L84.6162 40.7451Z" fill="#2F2E41"/>
<path d="M71.6966 52.1872C71.6002 52.1871 71.5039 52.1786 71.4089 52.1618L62.0254 50.5062V34.998H72.3548L72.0991 35.2962C68.541 39.4458 71.2216 46.1745 73.1361 49.816C73.2772 50.0827 73.3402 50.3839 73.3176 50.6848C73.2951 50.9856 73.1881 51.2741 73.0088 51.5168C72.8587 51.7244 72.6615 51.8934 72.4334 52.0099C72.2053 52.1265 71.9528 52.1872 71.6966 52.1872Z" fill="#2F2E41"/>
<path d="M184.1 89.4639C183.515 89.5228 182.927 89.5365 182.339 89.5049C182.239 89.494 182.139 89.5228 182.06 89.5851C181.981 89.6475 181.93 89.7383 181.917 89.8382L180.794 98.2616C180.708 98.873 180.457 99.4497 180.069 99.9303C179.75 100.313 179.512 100.757 179.371 101.235C179.23 101.713 179.189 102.215 179.251 102.71V117.019C179.251 117.019 179.178 118.926 180.644 118.926C182.399 119.147 184.174 119.147 185.928 118.926C185.928 118.926 187.102 118.704 187.102 116.944V102.855C187.191 102.363 187.173 101.858 187.048 101.374C186.923 100.891 186.694 100.44 186.377 100.053C186.003 99.5711 185.76 98.9992 185.675 98.3944L184.508 89.7948C184.495 89.6981 184.445 89.6101 184.369 89.5486C184.294 89.4871 184.197 89.4569 184.1 89.4639Z" fill="white"/>
<path d="M183.281 119.333C182.395 119.333 181.509 119.278 180.629 119.168C180.432 119.173 180.237 119.137 180.055 119.062C179.873 118.988 179.708 118.876 179.571 118.735C178.975 118.116 179.008 117.054 179.01 117.01L179.009 102.725C178.947 102.2 178.993 101.667 179.143 101.16C179.294 100.653 179.546 100.182 179.884 99.7758C180.243 99.3298 180.475 98.795 180.555 98.2281L181.678 89.8065C181.7 89.6446 181.784 89.4975 181.912 89.3964C182.041 89.2954 182.203 89.2483 182.366 89.2652C182.936 89.2953 183.508 89.2815 184.076 89.2239L184.083 89.2233C184.241 89.2118 184.398 89.2611 184.522 89.3612C184.645 89.4613 184.726 89.6047 184.748 89.7622L185.914 98.3623C185.994 98.9248 186.22 99.4567 186.568 99.9055C186.904 100.316 187.147 100.793 187.281 101.306C187.414 101.819 187.436 102.355 187.343 102.877V116.944C187.343 118.882 185.987 119.161 185.973 119.164C185.08 119.276 184.181 119.333 183.281 119.333ZM182.307 89.7453C182.271 89.7436 182.236 89.7553 182.208 89.7782C182.18 89.801 182.162 89.8333 182.157 89.8689L181.033 98.2938C180.941 98.9491 180.673 99.5671 180.258 100.082C179.959 100.44 179.737 100.855 179.605 101.302C179.473 101.749 179.434 102.218 179.491 102.68L179.492 102.71V117.019C179.492 117.037 179.466 117.931 179.92 118.401C180.014 118.497 180.127 118.572 180.252 118.621C180.377 118.669 180.511 118.691 180.644 118.685L180.675 118.687C182.409 118.905 184.164 118.905 185.898 118.687C185.921 118.681 186.86 118.467 186.86 116.944L186.864 102.812C186.948 102.355 186.931 101.885 186.815 101.435C186.698 100.985 186.485 100.566 186.191 100.207C185.788 99.6899 185.528 99.0769 185.436 98.4286L184.269 89.8274C184.264 89.7921 184.246 89.76 184.218 89.7374C184.191 89.7147 184.156 89.7031 184.12 89.7049C183.524 89.7645 182.925 89.7784 182.327 89.7464C182.32 89.7457 182.314 89.7453 182.307 89.7453Z" fill="#3F3D56"/>
<path d="M182.328 102.966H184.108C184.815 102.966 185.494 103.247 185.994 103.747C186.495 104.248 186.776 104.927 186.776 105.634V112.331C186.776 113.039 186.495 113.718 185.994 114.218C185.494 114.718 184.815 115 184.108 115H182.328C181.62 115 180.941 114.718 180.441 114.218C179.94 113.718 179.659 113.039 179.659 112.331V105.634C179.659 104.927 179.94 104.248 180.441 103.747C180.941 103.247 181.62 102.966 182.328 102.966Z" fill="#FA4A0C"/>
<path d="M123.703 77.8623C123.118 77.9213 122.529 77.935 121.942 77.9034C121.842 77.8924 121.742 77.9212 121.663 77.9836C121.584 78.0459 121.532 78.1368 121.519 78.2366L120.396 86.66C120.31 87.2715 120.06 87.8481 119.672 88.3287C119.352 88.7112 119.115 89.1553 118.974 89.6335C118.833 90.1117 118.792 90.6137 118.853 91.1084V105.417C118.853 105.417 118.781 107.325 120.247 107.325C122.001 107.545 123.776 107.545 125.531 107.325C125.531 107.325 126.704 107.103 126.704 105.342V91.2532C126.794 90.7617 126.775 90.2566 126.65 89.7729C126.525 89.2891 126.296 88.8384 125.98 88.4519C125.605 87.9695 125.363 87.3976 125.277 86.7928L124.111 78.1932C124.097 78.0965 124.048 78.0085 123.972 77.947C123.896 77.8856 123.8 77.8553 123.703 77.8623Z" fill="white"/>
<path d="M122.883 107.731C121.997 107.731 121.111 107.676 120.231 107.566C120.034 107.571 119.839 107.535 119.657 107.461C119.475 107.386 119.31 107.275 119.173 107.134C118.577 106.514 118.61 105.453 118.612 105.408L118.612 91.1233C118.549 90.5981 118.595 90.0657 118.745 89.5587C118.896 89.0516 119.148 88.5805 119.486 88.1742C119.845 87.7282 120.077 87.1934 120.157 86.6265L121.28 78.205C121.302 78.043 121.386 77.8959 121.514 77.7948C121.643 77.6938 121.805 77.6467 121.968 77.6636C122.538 77.6937 123.11 77.6799 123.678 77.6223L123.685 77.6218C123.843 77.6103 124 77.6596 124.124 77.7597C124.247 77.8598 124.328 78.0031 124.35 78.1606L125.516 86.7607C125.596 87.3232 125.822 87.8551 126.17 88.3039C126.506 88.7141 126.749 89.1919 126.883 89.7047C127.017 90.2175 127.038 90.7531 126.946 91.275V105.342C126.946 107.28 125.589 107.56 125.575 107.562C124.682 107.675 123.783 107.731 122.883 107.731ZM121.909 78.1438C121.873 78.1421 121.838 78.1537 121.81 78.1766C121.782 78.1994 121.764 78.2318 121.759 78.2674L120.636 86.6922C120.543 87.3475 120.275 87.9655 119.86 88.4807C119.561 88.8384 119.339 89.2534 119.207 89.7003C119.075 90.1472 119.036 90.6164 119.093 91.0789L119.095 91.1086V105.417C119.094 105.435 119.068 106.33 119.522 106.8C119.616 106.895 119.729 106.97 119.854 107.019C119.979 107.068 120.113 107.09 120.246 107.084L120.277 107.085C122.011 107.303 123.766 107.303 125.5 107.085C125.523 107.08 126.463 106.866 126.463 105.342L126.466 91.2102C126.55 90.7531 126.533 90.2833 126.417 89.8334C126.3 89.3836 126.087 88.9644 125.793 88.6052C125.39 88.0884 125.13 87.4754 125.038 86.827L123.871 78.2258C123.866 78.1906 123.848 78.1585 123.82 78.1358C123.793 78.1132 123.758 78.1016 123.722 78.1033C123.126 78.163 122.527 78.1768 121.929 78.1449C121.922 78.1441 121.916 78.1438 121.909 78.1438Z" fill="#3F3D56"/>
<path d="M121.93 91.3643H123.71C124.417 91.3643 125.096 91.6454 125.596 92.1459C126.097 92.6463 126.378 93.325 126.378 94.0328V100.729C126.378 101.437 126.097 102.116 125.596 102.616C125.096 103.117 124.417 103.398 123.71 103.398H121.93C121.222 103.398 120.543 103.117 120.043 102.616C119.542 102.116 119.261 101.437 119.261 100.729V94.0328C119.261 93.325 119.542 92.6463 120.043 92.1459C120.543 91.6454 121.222 91.3643 121.93 91.3643Z" fill="#FA4A0C"/>
<path d="M113.465 65.5781C112.88 65.6371 112.292 65.6508 111.705 65.6192C111.605 65.6083 111.504 65.6371 111.425 65.6994C111.346 65.7617 111.295 65.8526 111.282 65.9525L110.159 74.3758C110.073 74.9873 109.822 75.5639 109.435 76.0446C109.115 76.427 108.877 76.8712 108.737 77.3493C108.596 77.8275 108.555 78.3295 108.616 78.8242V93.1328C108.616 93.1328 108.544 95.0406 110.009 95.0406C111.764 95.2611 113.539 95.2611 115.293 95.0406C115.293 95.0406 116.467 94.8184 116.467 93.0579V78.9691C116.557 78.4775 116.538 77.9724 116.413 77.4887C116.288 77.005 116.059 76.5542 115.743 76.1677C115.368 75.6854 115.126 75.1135 115.04 74.5087L113.873 65.909C113.86 65.8123 113.811 65.7243 113.735 65.6629C113.659 65.6014 113.563 65.5711 113.465 65.5781Z" fill="white"/>
<path d="M112.646 95.4463C111.76 95.4463 110.874 95.3912 109.994 95.2813C109.797 95.286 109.602 95.2499 109.42 95.1754C109.238 95.1009 109.073 94.9896 108.937 94.8484C108.34 94.2289 108.373 93.1678 108.375 93.1228L108.375 78.8382C108.312 78.313 108.358 77.7806 108.508 77.2735C108.659 76.7664 108.911 76.2954 109.25 75.8891C109.608 75.443 109.84 74.9083 109.92 74.3414L111.043 65.9198C111.065 65.7578 111.149 65.6107 111.277 65.5097C111.406 65.4086 111.569 65.3616 111.731 65.3785C112.301 65.4085 112.873 65.3947 113.441 65.3372L113.448 65.3366C113.607 65.3251 113.764 65.3744 113.887 65.4745C114.011 65.5746 114.091 65.718 114.113 65.8755L115.279 74.4756C115.36 75.0381 115.585 75.57 115.933 76.0188C116.269 76.4289 116.512 76.9067 116.646 77.4195C116.78 77.9323 116.801 78.468 116.709 78.9898V93.0572C116.709 94.9953 115.352 95.2746 115.338 95.2772C114.446 95.3897 113.546 95.4462 112.646 95.4463ZM111.672 65.8586C111.636 65.8569 111.601 65.8686 111.573 65.8914C111.545 65.9143 111.527 65.9466 111.522 65.9822L110.399 74.4071C110.306 75.0623 110.038 75.6804 109.623 76.1955C109.324 76.5532 109.102 76.9683 108.97 77.4152C108.838 77.862 108.799 78.3312 108.856 78.7937L108.858 78.8234V93.132C108.857 93.1498 108.832 94.0446 109.286 94.5146C109.379 94.6102 109.493 94.6849 109.617 94.7338C109.742 94.7827 109.876 94.8047 110.01 94.7984L110.04 94.8003C111.774 95.018 113.529 95.018 115.263 94.8003C115.286 94.7947 116.226 94.5804 116.226 93.0572L116.23 78.9251C116.313 78.468 116.296 77.9982 116.18 77.5483C116.064 77.0984 115.851 76.6793 115.556 76.32C115.154 75.8032 114.893 75.1902 114.801 74.5418L113.634 65.9407C113.629 65.9054 113.611 65.8733 113.584 65.8507C113.556 65.828 113.521 65.8164 113.485 65.8182C112.89 65.8778 112.29 65.8917 111.692 65.8597C111.685 65.859 111.679 65.8586 111.672 65.8586Z" fill="#3F3D56"/>
<path d="M111.693 79.0801H113.473C114.18 79.0801 114.859 79.3612 115.36 79.8617C115.86 80.3621 116.141 81.0409 116.141 81.7486V88.4453C116.141 89.153 115.86 89.8318 115.36 90.3322C114.859 90.8327 114.18 91.1138 113.473 91.1138H111.693C110.985 91.1138 110.306 90.8327 109.806 90.3322C109.306 89.8318 109.024 89.153 109.024 88.4453V81.7486C109.024 81.0409 109.306 80.3621 109.806 79.8617C110.306 79.3612 110.985 79.0801 111.693 79.0801Z" fill="#FA4A0C"/>
<path d="M19.1729 24.2275C23.8843 24.2275 27.7036 20.4082 27.7036 15.6968C27.7036 10.9854 23.8843 7.16602 19.1729 7.16602C14.4614 7.16602 10.6421 10.9854 10.6421 15.6968C10.6421 20.4082 14.4614 24.2275 19.1729 24.2275Z" fill="#F0F0F0"/>
<path d="M215.722 17.0615C220.433 17.0615 224.252 13.2422 224.252 8.53076C224.252 3.81935 220.433 0 215.722 0C211.01 0 207.191 3.81935 207.191 8.53076C207.191 13.2422 211.01 17.0615 215.722 17.0615Z" fill="#F0F0F0"/>
<path d="M118.129 38.5587C121.522 38.5587 124.272 35.8088 124.272 32.4166C124.272 29.0243 121.522 26.2744 118.129 26.2744C114.737 26.2744 111.987 29.0243 111.987 32.4166C111.987 35.8088 114.737 38.5587 118.129 38.5587Z" fill="#F0F0F0"/>
</g>
<defs>
<clipPath id="clip0_150_8499">
<rect width="250" height="218.019" fill="white"/>
</clipPath>
</defs>
</svg>
