<svg width="37" height="50" viewBox="0 0 37 50" fill="none" xmlns="http://www.w3.org/2000/svg">
<path d="M17.8843 49.0127C29.6909 49.0127 36.356 43.6807 36.356 34.3179V6.35645C36.356 2.48438 34.0391 0.707031 30.8018 0.707031C27.5645 0.707031 25.1206 2.48438 25.1206 6.35645V7.53076H24.8984C23.3433 3.65869 19.5664 0.929199 14.5518 0.929199C5.72852 0.929199 0.650391 7.08643 0.650391 17.9092C0.650391 28.3828 5.88721 34.7622 14.3931 34.7622C19.4712 34.7622 23.4702 32.2549 24.835 28.605H25.0571V34.1274C25.0571 38.0312 22.3594 40.5068 17.7256 40.5068C14.7739 40.4751 12.3618 39.1421 9.98145 37.1426C8.87061 36.1904 7.66455 35.7778 6.2998 35.7778C3.57031 35.7778 1.85645 37.4917 1.85645 39.7134C1.85645 40.6338 2.04688 41.5859 2.58643 42.5381C4.71289 46.1245 10.1719 48.981 17.8843 49.0127ZM18.646 26.7959C14.5835 26.7959 12.1714 23.6855 12.1714 18.0996C12.1714 12.5454 14.6152 9.11768 18.646 9.11768C22.645 9.11768 25.1523 12.5771 25.1523 18.0996C25.1523 23.6855 22.6768 26.7959 18.646 26.7959Z" fill="#FA4A0C"/>
</svg>
