<svg width="56" height="56" viewBox="0 0 56 56" fill="none" xmlns="http://www.w3.org/2000/svg">
<path d="M28.0001 44.333C28.4616 44.333 28.9127 44.1962 29.2964 43.9398C29.6801 43.6834 29.9792 43.319 30.1558 42.8926C30.3324 42.4662 30.3786 41.9971 30.2886 41.5445C30.1986 41.0918 29.9763 40.6761 29.65 40.3498C29.3237 40.0234 28.9079 39.8012 28.4553 39.7112C28.0027 39.6211 27.5335 39.6673 27.1072 39.844C26.6808 40.0206 26.3164 40.3196 26.06 40.7033C25.8036 41.0871 25.6667 41.5382 25.6667 41.9997C25.6667 42.6185 25.9126 43.212 26.3502 43.6496C26.7878 44.0872 27.3812 44.333 28.0001 44.333ZM39.6668 44.333C40.1282 44.333 40.5794 44.1962 40.9631 43.9398C41.3468 43.6834 41.6459 43.319 41.8225 42.8926C41.9991 42.4662 42.0453 41.9971 41.9552 41.5445C41.8652 41.0918 41.643 40.6761 41.3167 40.3498C40.9903 40.0234 40.5746 39.8012 40.122 39.7112C39.6693 39.6211 39.2002 39.6673 38.7738 39.844C38.3475 40.0206 37.983 40.3196 37.7267 40.7033C37.4703 41.0871 37.3334 41.5382 37.3334 41.9997C37.3334 42.6185 37.5792 43.212 38.0168 43.6496C38.4544 44.0872 39.0479 44.333 39.6668 44.333ZM39.6668 34.9997C40.1282 34.9997 40.5794 34.8628 40.9631 34.6064C41.3468 34.35 41.6459 33.9856 41.8225 33.5593C41.9991 33.1329 42.0453 32.6638 41.9552 32.2111C41.8652 31.7585 41.643 31.3427 41.3167 31.0164C40.9903 30.6901 40.5746 30.4679 40.122 30.3778C39.6693 30.2878 39.2002 30.334 38.7738 30.5106C38.3475 30.6872 37.983 30.9863 37.7267 31.37C37.4703 31.7537 37.3334 32.2049 37.3334 32.6663C37.3334 33.2852 37.5792 33.8787 38.0168 34.3163C38.4544 34.7538 39.0479 34.9997 39.6668 34.9997ZM28.0001 34.9997C28.4616 34.9997 28.9127 34.8628 29.2964 34.6064C29.6801 34.35 29.9792 33.9856 30.1558 33.5593C30.3324 33.1329 30.3786 32.6638 30.2886 32.2111C30.1986 31.7585 29.9763 31.3427 29.65 31.0164C29.3237 30.6901 28.9079 30.4679 28.4553 30.3778C28.0027 30.2878 27.5335 30.334 27.1072 30.5106C26.6808 30.6872 26.3164 30.9863 26.06 31.37C25.8036 31.7537 25.6667 32.2049 25.6667 32.6663C25.6667 33.2852 25.9126 33.8787 26.3502 34.3163C26.7878 34.7538 27.3812 34.9997 28.0001 34.9997ZM44.3334 6.99967H42.0001V4.66634C42.0001 4.0475 41.7543 3.45401 41.3167 3.01643C40.8791 2.57884 40.2856 2.33301 39.6668 2.33301C39.0479 2.33301 38.4544 2.57884 38.0168 3.01643C37.5792 3.45401 37.3334 4.0475 37.3334 4.66634V6.99967H18.6667V4.66634C18.6667 4.0475 18.4209 3.45401 17.9833 3.01643C17.5457 2.57884 16.9523 2.33301 16.3334 2.33301C15.7146 2.33301 15.1211 2.57884 14.6835 3.01643C14.2459 3.45401 14.0001 4.0475 14.0001 4.66634V6.99967H11.6667C9.81023 6.99967 8.02976 7.73717 6.717 9.04993C5.40425 10.3627 4.66675 12.1432 4.66675 13.9997V46.6663C4.66675 48.5229 5.40425 50.3033 6.717 51.6161C8.02976 52.9288 9.81023 53.6663 11.6667 53.6663H44.3334C46.1899 53.6663 47.9704 52.9288 49.2832 51.6161C50.5959 50.3033 51.3334 48.5229 51.3334 46.6663V13.9997C51.3334 12.1432 50.5959 10.3627 49.2832 9.04993C47.9704 7.73717 46.1899 6.99967 44.3334 6.99967ZM46.6668 46.6663C46.6668 47.2852 46.4209 47.8787 45.9833 48.3163C45.5458 48.7538 44.9523 48.9997 44.3334 48.9997H11.6667C11.0479 48.9997 10.4544 48.7538 10.0168 48.3163C9.57925 47.8787 9.33342 47.2852 9.33342 46.6663V25.6663H46.6668V46.6663ZM46.6668 20.9997H9.33342V13.9997C9.33342 13.3808 9.57925 12.7873 10.0168 12.3498C10.4544 11.9122 11.0479 11.6663 11.6667 11.6663H14.0001V13.9997C14.0001 14.6185 14.2459 15.212 14.6835 15.6496C15.1211 16.0872 15.7146 16.333 16.3334 16.333C16.9523 16.333 17.5457 16.0872 17.9833 15.6496C18.4209 15.212 18.6667 14.6185 18.6667 13.9997V11.6663H37.3334V13.9997C37.3334 14.6185 37.5792 15.212 38.0168 15.6496C38.4544 16.0872 39.0479 16.333 39.6668 16.333C40.2856 16.333 40.8791 16.0872 41.3167 15.6496C41.7543 15.212 42.0001 14.6185 42.0001 13.9997V11.6663H44.3334C44.9523 11.6663 45.5458 11.9122 45.9833 12.3498C46.4209 12.7873 46.6668 13.3808 46.6668 13.9997V20.9997ZM16.3334 34.9997C16.7949 34.9997 17.246 34.8628 17.6297 34.6064C18.0135 34.35 18.3125 33.9856 18.4891 33.5593C18.6657 33.1329 18.7119 32.6638 18.6219 32.2111C18.5319 31.7585 18.3097 31.3427 17.9833 31.0164C17.657 30.6901 17.2412 30.4679 16.7886 30.3778C16.336 30.2878 15.8668 30.334 15.4405 30.5106C15.0141 30.6872 14.6497 30.9863 14.3933 31.37C14.1369 31.7537 14.0001 32.2049 14.0001 32.6663C14.0001 33.2852 14.2459 33.8787 14.6835 34.3163C15.1211 34.7538 15.7146 34.9997 16.3334 34.9997ZM16.3334 44.333C16.7949 44.333 17.246 44.1962 17.6297 43.9398C18.0135 43.6834 18.3125 43.319 18.4891 42.8926C18.6657 42.4662 18.7119 41.9971 18.6219 41.5445C18.5319 41.0918 18.3097 40.6761 17.9833 40.3498C17.657 40.0234 17.2412 39.8012 16.7886 39.7112C16.336 39.6211 15.8668 39.6673 15.4405 39.844C15.0141 40.0206 14.6497 40.3196 14.3933 40.7033C14.1369 41.0871 14.0001 41.5382 14.0001 41.9997C14.0001 42.6185 14.2459 43.212 14.6835 43.6496C15.1211 44.0872 15.7146 44.333 16.3334 44.333Z" fill="#FA4A0C"/>
</svg>
