<svg width="56" height="56" viewBox="0 0 56 56" fill="none" xmlns="http://www.w3.org/2000/svg">
<path d="M50.82 8.44699C51.0908 8.10552 51.2606 7.69502 51.3101 7.262C51.3596 6.82899 51.2868 6.39077 51.1 5.99699C50.9109 5.59992 50.6134 5.26439 50.2418 5.02907C49.8703 4.79375 49.4398 4.66824 49 4.66699H6.99999C6.56019 4.66824 6.12969 4.79375 5.75814 5.02907C5.38658 5.26439 5.0891 5.59992 4.89999 5.99699C4.71319 6.39077 4.64041 6.82899 4.6899 7.262C4.73938 7.69502 4.90916 8.10552 5.17999 8.44699L25.6667 34.067V46.667H12.25C11.6311 46.667 11.0377 46.9128 10.6001 47.3504C10.1625 47.788 9.91665 48.3815 9.91665 49.0003C9.91665 49.6192 10.1625 50.2127 10.6001 50.6502C11.0377 51.0878 11.6311 51.3337 12.25 51.3337H43.75C44.3688 51.3337 44.9623 51.0878 45.3999 50.6502C45.8375 50.2127 46.0833 49.6192 46.0833 49.0003C46.0833 48.3815 45.8375 47.788 45.3999 47.3504C44.9623 46.9128 44.3688 46.667 43.75 46.667H30.3333V34.067L50.82 8.44699ZM11.8533 9.33366H44.1467L38.5467 16.3337H17.5467L11.8533 9.33366ZM28 29.517L21.1867 21.0003H34.8133L28 29.517Z" fill="#FA4A0C"/>
</svg>
