<svg width="56" height="56" viewBox="0 0 56 56" fill="none" xmlns="http://www.w3.org/2000/svg">
<path d="M27.9999 4.66699C23.0492 4.66699 18.3013 6.63365 14.8006 10.1343C11.2999 13.635 9.33325 18.383 9.33325 23.3337C9.33325 35.9337 25.7833 50.167 26.4833 50.7737C26.9059 51.1352 27.4438 51.3338 27.9999 51.3338C28.5561 51.3338 29.0939 51.1352 29.5166 50.7737C30.3332 50.167 46.6666 35.9337 46.6666 23.3337C46.6666 18.383 44.6999 13.635 41.1992 10.1343C37.6986 6.63365 32.9506 4.66699 27.9999 4.66699V4.66699ZM27.9999 45.8503C23.0299 41.1837 13.9999 31.127 13.9999 23.3337C13.9999 19.6206 15.4749 16.0597 18.1004 13.4342C20.7259 10.8087 24.2869 9.33366 27.9999 9.33366C31.7129 9.33366 35.2739 10.8087 37.8994 13.4342C40.5249 16.0597 41.9999 19.6206 41.9999 23.3337C41.9999 31.127 32.9699 41.207 27.9999 45.8503ZM27.9999 14.0003C26.154 14.0003 24.3495 14.5477 22.8146 15.5733C21.2797 16.5988 20.0835 18.0565 19.377 19.7619C18.6706 21.4674 18.4858 23.344 18.8459 25.1545C19.206 26.965 20.095 28.628 21.4003 29.9333C22.7055 31.2386 24.3686 32.1275 26.1791 32.4877C27.9896 32.8478 29.8662 32.663 31.5716 31.9565C33.2771 31.2501 34.7347 30.0538 35.7603 28.519C36.7859 26.9841 37.3332 25.1796 37.3332 23.3337C37.3332 20.8583 36.3499 18.4843 34.5996 16.734C32.8492 14.9837 30.4753 14.0003 27.9999 14.0003ZM27.9999 28.0003C27.0769 28.0003 26.1747 27.7266 25.4073 27.2138C24.6398 26.7011 24.0417 25.9722 23.6885 25.1195C23.3353 24.2668 23.2429 23.3285 23.4229 22.4232C23.603 21.518 24.0474 20.6865 24.7001 20.0338C25.3527 19.3812 26.1843 18.9367 27.0895 18.7567C27.9947 18.5766 28.933 18.669 29.7858 19.0222C30.6385 19.3754 31.3673 19.9736 31.8801 20.741C32.3929 21.5084 32.6666 22.4107 32.6666 23.3337C32.6666 24.5713 32.1749 25.7583 31.2997 26.6335C30.4246 27.5087 29.2376 28.0003 27.9999 28.0003Z" fill="#FA4A0C"/>
</svg>
