<svg width="70" height="70" viewBox="0 0 70 70" fill="none" xmlns="http://www.w3.org/2000/svg">
<g clip-path="url(#clip0_504_13253)">
<circle cx="35" cy="35" r="35" fill="white"/>
<path d="M33.3843 64.0127C45.1909 64.0127 51.856 58.6807 51.856 49.3179V21.3564C51.856 17.4844 49.5391 15.707 46.3018 15.707C43.0645 15.707 40.6206 17.4844 40.6206 21.3564V22.5308H40.3984C38.8433 18.6587 35.0664 15.9292 30.0518 15.9292C21.2285 15.9292 16.1504 22.0864 16.1504 32.9092C16.1504 43.3828 21.3872 49.7622 29.8931 49.7622C34.9712 49.7622 38.9702 47.2549 40.335 43.605H40.5571V49.1274C40.5571 53.0312 37.8594 55.5068 33.2256 55.5068C30.2739 55.4751 27.8618 54.1421 25.4814 52.1426C24.3706 51.1904 23.1646 50.7778 21.7998 50.7778C19.0703 50.7778 17.3564 52.4917 17.3564 54.7134C17.3564 55.6338 17.5469 56.5859 18.0864 57.5381C20.2129 61.1245 25.6719 63.981 33.3843 64.0127ZM34.146 41.7959C30.0835 41.7959 27.6714 38.6855 27.6714 33.0996C27.6714 27.5454 30.1152 24.1177 34.146 24.1177C38.145 24.1177 40.6523 27.5771 40.6523 33.0996C40.6523 38.6855 38.1768 41.7959 34.146 41.7959Z" fill="#FA4A0C"/>
</g>
<defs>
<clipPath id="clip0_504_13253">
<rect width="70" height="70" fill="white"/>
</clipPath>
</defs>
</svg>
